PathFileType	4	(X/Y/Z)	C:/Users/empri/Downloads/Take 2024-05-09 02.19.42 PM.trc
DataRate	CameraRate	NumFrames	NumMarkers	Units	OrigDataRate	OrigDataStartFrame	OrigNumFrames
240	240	35	9	mm	240	1119	1279
Frame#	Time	C7	CLAV	RELB	RFIN	RFRM	RSHO	RUPA	RWRA	RWRB
X1	Y1	Z1	X2	Y2	Z2	X3	Y3	Z3	X4	Y4	Z4	X5	Y5	Z5	X6	Y6	Z6	X7	Y7	Z7	X8	Y8	Z8	X9	Y9	Z9
1119	4.662	-147.253	1553.07	-74.162	25.1402	1388.29	-144.867	109.215	1274.16	231.625	374.007	1115.33	258.32	165.395	1185.88	290.405	-3.9412	1525.16	47.0173	45.5427	1409.2	159.134	291.927	1129.05	228.169	251.983	1076.42	297.486
1120	4.667	-147.168	1553.03	-74.0387	25.1716	1388.18	-144.918	110.537	1272.52	230.691	372.541	1108.73	257.089	165.353	1182.88	289.225	-3.65825	1524.89	47.013	46.0829	1408.54	158.613	290.789	1124	226.761	249.835	1071.52	295.448
1121	4.671	-147.093	1553.02	-73.9136	25.2067	1388.11	-144.967	111.614	1271.27	229.935	371.279	1103.42	255.988	165.386	1180.61	288.247	-3.42078	1524.67	47.0246	46.4985	1408.01	158.289	289.866	1120	225.536	248.056	1067.69	293.711
1122	4.675	-147.016	1553	-73.7929	25.2609	1388.02	-145.043	112.718	1269.96	229.212	369.96	1098.13	254.896	165.509	1178.45	287.26	-3.1805	1524.46	47.0327	46.912	1407.49	157.974	288.916	1116.04	224.276	246.311	1063.89	291.95
1123	4.679	-146.942	1552.98	-73.6732	25.3072	1387.95	-145.109	113.815	1268.6	228.579	368.671	1092.94	253.709	165.793	1176.42	286.212	-2.87902	1524.21	47.0396	47.3877	1406.95	157.643	287.914	1112.1	222.967	244.521	1060.18	290.2
1124	4.683	-146.851	1552.96	-73.5304	25.354	1387.88	-145.159	114.929	1267.38	227.876	367.304	1087.75	252.521	165.687	1174.08	285.125	-2.59796	1523.96	47.0796	47.9018	1406.41	157.302	286.905	1108.18	221.565	242.687	1056.63	288.596
1125	4.688	-146.744	1552.94	-73.3686	25.4181	1387.75	-145.233	116.213	1265.91	227.133	365.537	1081.36	250.858	165.629	1171.38	283.708	-2.21031	1523.6	47.1084	48.5587	1405.77	156.893	285.532	1103.31	219.82	240.348	1052.32	286.612
1126	4.692	-146.654	1552.92	-73.2393	25.4709	1387.67	-145.305	117.107	1264.82	226.502	364.081	1076.24	249.36	165.6	1169.25	282.527	-1.94037	1523.3	47.1126	49.1179	1405.23	156.547	284.451	1099.49	218.306	238.506	1049.02	285.1
1127	4.696	-146.561	1552.9	-73.1107	25.5357	1387.58	-145.376	117.914	1263.64	225.855	362.57	1071.1	247.827	165.518	1167.1	281.288	-1.68953	1522.98	47.1354	49.7384	1404.73	156.231	283.31	1095.62	216.787	236.636	1045.84	283.676
1128	4.7	-146.478	1552.87	-72.9763	25.5929	1387.5	-145.466	118.625	1262.51	225.165	360.946	1065.97	246.215	165.058	1164.68	280.067	-1.36709	1522.63	47.1308	50.3902	1404.14	155.846	282.118	1091.78	215.242	234.78	1042.66	282.244
1129	4.704	-146.384	1552.84	-72.8443	25.6455	1387.41	-145.532	119.344	1261.34	224.423	359.352	1060.87	244.57	164.483	1162.29	278.819	-1.03327	1522.27	47.1625	51.0792	1403.6	155.449	280.873	1087.98	213.646	232.958	1039.66	280.976
1130	4.708	-146.284	1552.79	-72.7027	25.6789	1387.31	-145.597	120.053	1260.13	223.628	357.696	1055.8	242.781	163.953	1160.12	277.573	-0.710426	1521.89	47.2344	51.7986	1402.98	155.09	279.611	1084.24	212.077	231.094	1036.76	279.77
1131	4.713	-146.17	1552.73	-72.5219	25.7046	1387.15	-145.685	121.005	1258.59	222.606	355.586	1049.46	240.542	163.667	1157.66	276.029	-0.336137	1521.44	47.3018	52.6389	1402.16	154.584	277.98	1079.63	210.1	228.751	1033.16	278.293
1132	4.717	-146.079	1552.68	-72.3802	25.7246	1387.03	-145.756	121.78	1257.27	221.671	353.781	1044.42	238.708	163.611	1155.64	274.748	-0.0129613	1521.07	47.3248	53.3325	1401.44	154.185	276.667	1075.97	208.506	226.869	1030.36	277.14
1133	4.721	-145.962	1552.61	-72.2392	25.7382	1386.9	-145.838	122.52	1255.86	220.582	351.933	1039.51	236.877	163.492	1153.78	273.449	0.317464	1520.71	47.3774	53.9513	1400.74	153.74	275.261	1072.38	206.907	225.019	1027.45	275.97
1134	4.725	-145.872	1552.56	-72.07	25.7558	1386.76	-145.897	123.279	1254.43	219.562	350.054	1034.54	234.997	163.332	1151.73	272.183	0.694722	1520.32	47.4371	54.5116	1399.96	153.27	273.861	1068.86	205.308	223.156	1024.63	274.807
1135	4.729	-145.768	1552.48	-71.9001	25.7949	1386.64	-145.943	123.889	1252.93	218.413	348.162	1029.74	233.151	163.161	1149.81	270.99	0.998153	1519.95	47.5548	55.0075	1399.18	152.83	272.404	1065.38	203.778	221.342	1021.9	273.667
1136	4.733	-145.644	1552.41	-71.7189	25.7792	1386.48	-145.963	124.456	1251.52	217.286	346.129	1024.93	231.299	162.936	1147.84	269.747	1.32922	1519.57	47.6479	55.5117	1398.4	152.363	270.871	1061.94	202.217	219.474	1019.25	272.453
1137	4.737	-145.528	1552.35	-71.5415	25.8203	1386.37	-146.019	124.931	1250.02	216.111	344.053	1020.24	229.361	162.734	1145.81	268.39	1.67381	1519.16	47.7177	55.9594	1397.61	151.932	269.311	1058.56	200.737	217.662	1016.75	271.287
1138	4.742	-145.391	1552.28	-71.2928	25.8798	1386.24	-146.091	125.478	1248.13	214.546	341.494	1014.43	227.091	162.312	1143.4	266.871	2.10739	1518.64	47.7861	56.5365	1396.54	151.385	267.314	1054.39	198.931	215.271	1013.62	269.763
1139	4.746	-145.281	1552.24	-71.0994	25.9289	1386.13	-146.146	125.836	1246.64	213.311	339.334	1009.91	225.244	161.944	1141.35	265.653	2.48391	1518.27	47.8113	56.9673	1395.69	150.999	265.705	1051.12	197.459	213.367	1011.13	268.476
1140	4.75	-145.199	1552.18	-70.9039	25.9917	1386.03	-146.196	126.217	1245.05	212.105	337.117	1005.51	223.458	161.595	1139.29	264.199	2.80004	1517.86	47.865	57.4344	1394.81	150.533	264.147	1047.91	195.993	211.391	1008.55	267.134
1141	4.754	-145.053	1552.08	-70.7143	26.0482	1385.93	-146.241	126.442	1243.61	210.879	334.927	1001.15	221.618	161.166	1137.35	262.98	3.16339	1517.44	47.8993	57.835	1393.91	150.12	262.574	1044.82	194.492	209.368	1006.03	265.778
1142	4.758	-144.93	1552.01	-70.5146	26.1086	1385.79	-146.281	126.607	1242.13	209.78	332.647	996.916	219.81	160.682	1135.31	261.677	3.51186	1517.02	47.9266	58.2609	1393.08	149.681	260.995	1041.73	192.919	207.358	1003.48	264.362
1143	4.763	-144.788	1551.94	-70.2659	26.1768	1385.62	-146.344	126.812	1240.31	208.307	329.854	991.669	217.622	160.055	1132.8	260.025	3.93408	1516.55	48.0099	58.7941	1392.02	149.077	258.97	1037.91	190.965	204.801	1000.34	262.502
1144	4.767	-144.68	1551.88	-70.0429	26.2223	1385.45	-146.401	126.929	1238.86	207.263	327.54	987.618	215.888	159.511	1130.8	258.723	4.2597	1516.19	48.0662	59.1889	1391.14	148.63	257.316	1034.93	189.37	202.793	997.809	260.973
1145	4.771	-144.575	1551.82	-69.8625	26.2801	1385.31	-146.455	127.071	1237.4	206.211	325.3	983.613	214.124	158.918	1128.75	257.36	4.63208	1515.79	48.1064	59.6256	1390.19	148.136	255.662	1031.93	187.737	200.654	995.318	259.376
1146	4.775	-144.477	1551.76	-69.6882	26.3122	1385.18	-146.519	127.236	1235.94	205.108	322.955	979.689	212.397	158.279	1126.7	255.945	4.98656	1515.41	48.1477	59.9865	1389.36	147.71	253.928	1029.01	186.128	198.563	992.781	257.642
1147	4.779	-144.335	1551.69	-69.508	26.3352	1385.04	-146.572	127.369	1234.43	203.974	320.629	975.854	210.69	157.649	1124.72	254.639	5.32098	1515.05	48.2025	60.378	1388.52	147.328	252.238	1026.11	184.517	196.419	990.372	255.978
1148	4.783	-144.207	1551.64	-69.3124	26.3544	1384.9	-146.629	127.423	1232.95	203.012	318.292	972.131	208.916	156.986	1122.7	253.212	5.63905	1514.64	48.2468	60.7573	1387.74	146.969	250.492	1023.25	182.881	194.36	987.813	254.224
1149	4.787	-144.083	1551.59	-69.0992	26.383	1384.77	-146.667	127.559	1231.42	201.989	315.877	968.473	207.209	156.273	1120.71	251.821	6.00699	1514.22	48.2868	61.1114	1386.95	146.633	248.689	1020.36	181.255	192.258	985.378	252.432
1150	4.792	-143.941	1551.52	-68.8635	26.4237	1384.6	-146.735	127.569	1229.6	200.712	312.946	963.888	204.973	155.29	1118.28	250.112	6.46466	1513.72	48.3379	61.582	1385.93	146.177	246.392	1016.9	179.178	189.592	982.465	250.357
1151	4.796	-143.827	1551.47	-68.6783	26.4703	1384.47	-146.778	127.658	1228.02	199.691	310.513	960.379	203.16	154.57	1116.29	248.711	6.80857	1513.34	48.3916	62.0016	1385.13	145.804	244.538	1014.07	177.464	187.521	980.091	248.656
1152	4.8	-143.714	1551.43	-68.4646	26.5302	1384.36	-146.849	127.696	1226.5	198.576	308.18	956.97	201.356	153.789	1114.4	247.35	7.15411	1512.92	48.4103	62.4755	1384.27	145.347	242.637	1011.35	175.769	185.389	977.864	246.93
1153	4.804	-143.602	1551.4	-68.2817	26.559	1384.25	-146.911	127.613	1225.01	197.278	305.821	953.63	199.439	153	1112.5	245.896	7.51769	1512.53	48.4121	62.9491	1383.37	144.786	240.749	1008.71	174.029	183.39	975.572	245.287
